<svg width="32" height="32" viewBox="0 0 32 32" fill="none" xmlns="http://www.w3.org/2000/svg">
<path d="M24 0H8C3.58172 0 0 3.58172 0 8V24C0 28.4183 3.58172 32 8 32H24C28.4183 32 32 28.4183 32 24V8C32 3.58172 28.4183 0 24 0Z" fill="#F1F6FC"/>
<path d="M8.86667 11.3502C8.86667 11.3502 7.72001 12.0387 7.46445 13.1707C7.2089 14.3027 7.46445 15.5422 7.46445 15.5422C7.46445 15.5422 5.66623 16.284 5.66623 18.6169C5.66623 20.9498 7.18312 21.6093 7.18312 21.6093C7.18312 21.6093 7.2009 24.3627 8.89823 25.8476C10.5956 27.3324 12.3765 27.3396 12.3765 27.3396C12.3765 27.3396 13.3027 29.2987 16.0276 29.2987C18.7525 29.2987 19.6791 27.3396 19.6791 27.3396C19.6791 27.3396 21.5236 27.0702 23.1573 25.8476C24.7911 24.6253 24.7462 21.6093 24.7462 21.6093C24.7462 21.6093 26.3893 20.9502 26.3893 18.6169C26.3893 16.2836 24.5907 15.5427 24.5907 15.5427C24.5907 15.5427 24.8471 14.3027 24.5907 13.1707C24.3342 12.0387 23.1885 11.3502 23.1885 11.3502" fill="#B22EC8"/>
<path d="M24.6436 14.8569C24.6436 10.0929 20.7813 8.75111 16.0178 8.75111C11.2542 8.75111 7.392 10.0933 7.392 14.8569C7.392 19.6204 11.2542 23.4827 16.0178 23.4827C20.7813 23.4827 24.6436 19.6204 24.6436 14.8569Z" fill="#B22EC8"/>
<path d="M16.292 29.2925C16.292 29.2925 18.6245 27.6613 18.472 23.9098C19.4751 22.8662 19.7862 21.464 18.8751 19.76C20.4142 17.5662 20.2542 15.1929 18.4129 13.3938C19.1716 12.2987 18.7747 11.3502 17.9169 10.6378C17.9169 10.6378 20.3858 11.8485 22.2769 10.1173C22.2769 10.1173 26.2516 12.9751 24.5907 15.5427C24.5907 15.5427 28.9791 18.5085 24.7462 21.6093C24.7462 21.6093 25.3645 26.336 19.7862 27.3205C19.7862 27.3205 18.3178 28.9827 16.292 29.2925V29.2925Z" fill="#580d65"/>
<path d="M24.7911 5.00534C22.8933 13.8618 17.0689 10.8422 16.2773 9.28489C15.4862 7.72711 16.2507 1.52578 24.7911 5.00489V5.00534Z" fill="#0F805D"/>
<path d="M7.26401 5.00534C9.16179 13.8618 14.9862 10.8422 15.7778 9.28489C16.5689 7.72711 15.8045 1.52578 7.26401 5.00489V5.00534Z" fill="#0F805D"/>
<path d="M24.7911 5.00534C22.8933 13.8618 17.0689 10.8422 16.2773 9.28489C15.4862 7.72711 16.2507 1.52578 24.7911 5.00489V5.00534Z" stroke="#000000" stroke-miterlimit="10" stroke-linecap="round" stroke-linejoin="round"/>
<path d="M20.2542 6.79734C18.8631 7.33156 17.0813 8.19067 16.292 9.31067M7.26401 5.00534C9.16179 13.8618 14.9862 10.8422 15.7778 9.28489C16.5689 7.72711 15.8045 1.52578 7.26401 5.00489V5.00534Z" stroke="#000000" stroke-miterlimit="10" stroke-linecap="round" stroke-linejoin="round"/>
<path d="M11.8009 6.79733C13.1925 7.33155 14.9738 8.19067 15.7631 9.31067M8.86667 11.3502C8.86667 11.3502 7.72001 12.0387 7.46445 13.1707C7.2089 14.3027 7.46445 15.5422 7.46445 15.5422C7.46445 15.5422 5.66623 16.284 5.66623 18.6169C5.66623 20.9498 7.18312 21.6093 7.18312 21.6093C7.18312 21.6093 7.2009 24.3627 8.89823 25.8476C10.5956 27.3324 12.3765 27.3396 12.3765 27.3396C12.3765 27.3396 13.3027 29.2987 16.0276 29.2987C18.7525 29.2987 19.6791 27.3396 19.6791 27.3396C19.6791 27.3396 21.5236 27.0702 23.1573 25.8476C24.7911 24.6253 24.7462 21.6093 24.7462 21.6093C24.7462 21.6093 26.3893 20.9502 26.3893 18.6169C26.3893 16.2836 24.5907 15.5427 24.5907 15.5427C24.5907 15.5427 24.8471 14.3027 24.5907 13.1707C24.3342 12.0387 23.1885 11.3502 23.1885 11.3502" stroke="#000000" stroke-miterlimit="10" stroke-linecap="round" stroke-linejoin="round"/>
<path d="M18.7747 13.1C18.7747 13.1 17.612 14.3298 16.1773 14.3298M13.4809 13.1C13.4809 13.1 14.6436 14.3298 16.0782 14.3298M22.2498 17.5662C22.2498 18.8516 21.1467 19.8933 19.7862 19.8933M17.228 17.5662C17.228 18.8516 18.3311 19.8933 19.6916 19.8933M15.0591 17.5662C15.0591 18.8516 13.956 19.8933 12.5951 19.8933M10.0369 17.5662C10.0369 18.8516 11.14 19.8933 12.5009 19.8933M18.6245 23.9387C18.1605 24.556 17.22 24.9782 16.1351 24.9782M13.4849 23.8631C13.9271 24.5209 14.8996 24.9782 16.028 24.9782M13.4622 24.0222C13.4622 24.5733 13.1205 25.0707 12.5742 25.4196M18.6511 24.0222C18.6511 24.6236 19.0569 25.16 19.6916 25.5102" stroke="#000000" stroke-miterlimit="10" stroke-linecap="round" stroke-linejoin="round"/>
<path d="M10.4049 18.9653C10.4049 20.0169 9.66667 20.9053 8.65289 21.1938M11.1165 13.0844C11.1165 14.46 10.0133 15.5756 8.65245 15.5756M20.6102 13.0844C20.6102 14.46 21.7133 15.5756 23.0742 15.5756M21.8893 18.9653C21.8893 19.9698 22.5631 20.8253 23.5071 21.152" stroke="#000000" stroke-miterlimit="10" stroke-linecap="round" stroke-linejoin="round"/>
</svg>
