<svg width="58" height="60" viewBox="0 0 58 60" fill="none" xmlns="http://www.w3.org/2000/svg">
<path d="M16.0708 21.2816C16.0708 21.2816 13.9925 22.5725 13.5293 24.695C13.0661 26.8175 13.5293 29.1416 13.5293 29.1416C13.5293 29.1416 10.27 30.5325 10.27 34.9066C10.27 39.2808 13.0194 40.5174 13.0194 40.5174C13.0194 40.5174 13.0516 45.68 16.128 48.4641C19.2044 51.2483 22.4323 51.2616 22.4323 51.2616C22.4323 51.2616 24.1111 54.9349 29.0499 54.9349C33.9888 54.9349 35.6684 51.2616 35.6684 51.2616C35.6684 51.2616 39.0114 50.7566 41.9727 48.4641C44.9339 46.1725 44.8525 40.5174 44.8525 40.5174C44.8525 40.5174 47.8307 39.2816 47.8307 34.9066C47.8307 30.5316 44.5706 29.1425 44.5706 29.1425C44.5706 29.1425 45.0354 26.8175 44.5706 24.695C44.1058 22.5725 42.029 21.2816 42.029 21.2816" fill="#B22EC8"/>
<path d="M44.6664 27.8567C44.6664 18.9242 37.6661 16.4083 29.0322 16.4083C20.3982 16.4083 13.3979 18.925 13.3979 27.8567C13.3979 36.7883 20.3982 44.03 29.0322 44.03C37.6661 44.03 44.6664 36.7883 44.6664 27.8567Z" fill="#B22EC8"/>
<path d="M29.5293 54.9233C29.5293 54.9233 33.7569 51.865 33.4805 44.8308C35.2987 42.8741 35.8626 40.245 34.2112 37.05C37.0008 32.9366 36.7108 28.4866 33.3734 25.1133C34.7485 23.06 34.0291 21.2816 32.4744 19.9458C32.4744 19.9458 36.9493 22.2158 40.3769 18.97C40.3769 18.97 47.581 24.3283 44.5706 29.1425C44.5706 29.1425 52.5247 34.7033 44.8526 40.5175C44.8526 40.5175 45.9731 49.38 35.8626 51.2258C35.8626 51.2258 33.201 54.3425 29.5293 54.9233Z" fill="#6A107A"/>
<path d="M44.9339 9.38497C41.4942 25.9908 30.9374 20.3291 29.5027 17.4091C28.0688 14.4883 29.4544 2.8608 44.9339 9.38414V9.38497Z" fill="#0F805D"/>
<path d="M13.166 9.38497C16.6057 25.9908 27.1625 20.3291 28.5972 17.4091C30.0311 14.4883 28.6456 2.8608 13.166 9.38414V9.38497Z" fill="#0F805D"/>
<path d="M44.9339 9.38497C41.4942 25.9908 30.9374 20.3291 29.5027 17.4091C28.0688 14.4883 29.4544 2.8608 44.9339 9.38414V9.38497Z" stroke="black" stroke-width="2" stroke-miterlimit="10" stroke-linecap="round" stroke-linejoin="round"/>
<path d="M36.7108 12.745C34.1894 13.7466 30.9599 15.3575 29.5293 17.4575M13.166 9.38497C16.6057 25.9908 27.1625 20.3291 28.5972 17.4091C30.0311 14.4883 28.6456 2.8608 13.166 9.38414V9.38497Z" stroke="black" stroke-width="2" stroke-miterlimit="10" stroke-linecap="round" stroke-linejoin="round"/>
<path d="M21.3891 12.745C23.9113 13.7467 27.14 15.3575 28.5706 17.4575M16.0708 21.2817C16.0708 21.2817 13.9925 22.5725 13.5293 24.695C13.0661 26.8175 13.5293 29.1417 13.5293 29.1417C13.5293 29.1417 10.27 30.5325 10.27 34.9067C10.27 39.2808 13.0194 40.5175 13.0194 40.5175C13.0194 40.5175 13.0516 45.68 16.128 48.4642C19.2044 51.2483 22.4323 51.2617 22.4323 51.2617C22.4323 51.2617 24.1111 54.935 29.0499 54.935C33.9888 54.935 35.6684 51.2617 35.6684 51.2617C35.6684 51.2617 39.0114 50.7567 41.9727 48.4642C44.9339 46.1725 44.8525 40.5175 44.8525 40.5175C44.8525 40.5175 47.8307 39.2817 47.8307 34.9067C47.8307 30.5317 44.5706 29.1425 44.5706 29.1425C44.5706 29.1425 45.0354 26.8175 44.5706 24.695C44.1058 22.5725 42.029 21.2817 42.029 21.2817" stroke="black" stroke-width="2" stroke-miterlimit="10" stroke-linecap="round" stroke-linejoin="round"/>
<path d="M34.0291 24.5625C34.0291 24.5625 31.9218 26.8683 29.3214 26.8683M24.4341 24.5625C24.4341 24.5625 26.5415 26.8683 29.1418 26.8683M40.3278 32.9367C40.3278 35.3467 38.3284 37.3 35.8626 37.3M31.2258 32.9367C31.2258 35.3467 33.2252 37.3 35.691 37.3M27.2947 32.9367C27.2947 35.3467 25.2953 37.3 22.8287 37.3M18.1919 32.9367C18.1919 35.3467 20.1913 37.3 22.6579 37.3M33.7568 44.885C32.9158 46.0425 31.2113 46.8342 29.2449 46.8342M24.4414 44.7433C25.2429 45.9767 27.0055 46.8342 29.0508 46.8342M24.4003 45.0417C24.4003 46.075 23.7808 47.0075 22.7908 47.6617M33.8052 45.0417C33.8052 46.1692 34.5406 47.175 35.691 47.8317" stroke="black" stroke-width="2" stroke-miterlimit="10" stroke-linecap="round" stroke-linejoin="round"/>
<path d="M18.8588 35.56C18.8588 37.5317 17.5208 39.1975 15.6833 39.7383M20.1485 24.5333C20.1485 27.1125 18.1491 29.2042 15.6825 29.2042M37.356 24.5333C37.356 27.1125 39.3554 29.2042 41.822 29.2042M39.6744 35.56C39.6744 37.4433 40.8956 39.0475 42.6066 39.66" stroke="black" stroke-width="2" stroke-miterlimit="10" stroke-linecap="round" stroke-linejoin="round"/>
</svg>
