<svg width="242" height="34" viewBox="0 0 242 34" fill="none" xmlns="http://www.w3.org/2000/svg">
<g clip-path="url(#clip0_1_2)">
<path d="M105.802 17.2072C105.8 17.161 105.781 17.1179 105.75 17.078C105.793 17.077 105.835 17.0759 105.877 17.0759C105.852 17.119 105.827 17.1631 105.802 17.2072ZM95.6246 30.7014C96.277 25.8322 99.8024 19.7222 105.619 17.4404C105.651 17.4289 105.67 17.4121 105.694 17.3963C104.264 19.9512 103.512 22.6774 101.9 25.1997C100.496 27.3985 98.1213 29.1403 95.6246 30.7014ZM76.4739 28.9659C75.9709 29.7633 73.1007 33.229 73.3534 31.191C73.5608 29.5091 74.15 27.8629 74.8102 26.2503C76.1732 22.9222 78.7237 20.133 82.1092 17.7819C81.2449 18.7536 80.8686 20.0258 80.4689 21.0953C79.4706 23.771 78.0628 26.4457 76.4739 28.9659ZM68.9055 6.30051C66.8133 4.01138 70.5877 5.24684 72.3409 5.66075C75.2424 6.34465 78.0024 7.50233 80.5176 8.74827C84.368 10.6571 88.0874 12.7183 90.5125 15.6283C82.1417 14.375 73.8649 11.7287 68.9055 6.30051ZM94.138 6.98023C93.1883 6.38037 92.3457 5.70486 91.5127 5.01991C91.7 5.17539 88.9344 1.95863 89.0684 1.99329C94.5221 3.40732 99.3551 5.56828 103.588 8.45622C106.701 10.5794 108.664 13.4768 111.634 15.6776C107.407 14.2846 103.874 12.3107 100.085 10.3283C98.0464 9.26094 96.0383 8.181 94.138 6.98023ZM48.9062 30.0459C47.2575 31.5114 46.8416 31.1626 46.8482 29.3714C46.8556 27.4773 48.028 25.6714 49.2987 24.0788C51.4225 21.421 54.7904 19.3713 57.8091 17.286C57.8394 17.286 57.8707 17.286 57.9015 17.2871C55.1308 21.7035 53.2155 26.2167 48.9062 30.0459ZM32.4391 20.9787C30.6216 23.3792 29.0289 25.9488 25.3675 26.9279C26.1407 22.4778 30.5863 19.0299 36.1127 17.4226C34.4931 18.2935 33.3302 19.8 32.4391 20.9787ZM2.46178 16.4603C8.56381 14.8908 14.3865 15.0526 20.5139 16.1609C19.3637 16.1703 18.2155 16.1798 17.0666 16.1882C16.6429 16.1924 16.4785 16.4782 16.5641 16.7072C11.7176 17.2503 6.64916 18.4658 2.46178 16.4603ZM21.155 5.70591C29.1882 5.7763 35.1159 10.9092 40.3368 15.1167C36.8327 13.8959 32.9618 13.2866 29.6488 11.6478C26.4124 10.0489 23.9386 7.71139 21.155 5.70591ZM41.7894 4.14482C51.3974 5.54414 59.204 9.2809 64.0768 15.499C55.4708 13.9274 45.7341 10.2831 41.7894 4.14482ZM118.489 16.3657C116.77 16.3216 115.051 16.2954 113.331 16.2586C113.4 16.1514 113.392 16.018 113.249 15.8972C109.524 12.7571 106.613 9.26409 102.265 6.54109C98.1325 3.95256 93.1306 2.26014 88.0604 0.924905C87.7111 0.832459 87.275 1.12976 87.4221 1.39449C89.4743 5.08819 93.1525 7.58533 97.4376 9.9396C101.193 12.0029 105.535 15.0641 110.241 16.1945C104.141 16.0769 98.0374 15.9865 91.9337 15.935C90.5747 13.1143 86.8809 11.1246 83.7132 9.41327C78.7465 6.7302 73.3288 4.75833 67.2171 3.99668C66.8386 3.95046 66.5071 4.15847 66.5987 4.44947C67.7313 8.00555 72.2246 10.6151 76.1135 12.5901C78.4061 13.7541 81.6247 15.1513 84.885 15.8919C78.3541 15.8594 71.8221 15.852 65.2895 15.8667C62.5848 8.51926 50.2596 4.37593 40.9738 3.18987C40.6013 3.14155 40.1083 3.37478 40.2826 3.69624C43.4324 9.53304 52.4959 14.3025 61.0836 15.8825C54.8608 15.9056 48.6384 15.9382 42.4161 15.9844C42.3853 15.9434 42.3434 15.9056 42.2791 15.8741C42.0292 15.7617 41.768 15.6671 41.5132 15.5642C35.9052 10.5804 29.2357 4.27718 19.5673 4.78669C19.0171 4.81506 18.665 5.30042 19.101 5.61243C22.036 7.70931 24.6632 10.1634 27.9611 11.9661C31.5066 13.9043 35.6922 15.103 39.935 16.0044C34.5138 16.0453 29.0949 16.0895 23.6758 16.1346C16.4946 13.3328 7.77108 13.3938 0.401042 15.769C-0.0618632 15.9182 -0.133982 16.4729 0.236669 16.7061C2.94595 18.408 6.31984 18.6023 9.76415 18.5425C13.9017 18.4721 19.2789 18.3113 23.2006 17.2881C23.3572 17.2472 23.4399 17.1452 23.4411 17.0433C27.061 17.0738 30.6814 17.1011 34.3018 17.1305C28.5597 18.6874 24.5479 22.9043 24.2746 27.451C24.2594 27.6948 24.6049 27.865 24.9114 27.8061C27.9952 27.2147 29.9407 25.6809 31.5637 23.7405C32.5207 22.5944 33.3101 21.3768 34.2655 20.2286C35.3971 18.8681 36.7735 18.1601 38.5334 17.3123C38.6205 17.2713 38.6704 17.2198 38.7011 17.1663C44.5768 17.2114 50.452 17.2513 56.3299 17.2808C49.9399 20.8589 43.9618 25.9131 45.7625 32.1795C45.8352 32.4348 46.2953 32.6491 46.6403 32.5451C49.8426 31.586 51.7383 29.0027 53.3926 26.9174C55.8279 23.8477 57.3888 20.6246 59.0532 17.306C59.0559 17.3007 59.0537 17.2955 59.0559 17.2892C66.411 17.3207 73.767 17.3343 81.1203 17.3102C74.945 20.5332 71.3608 27.4857 71.8785 32.8046C71.9009 33.0305 72.1469 33.291 72.5014 33.2626C75.5488 33.0095 77.4652 29.5028 78.4357 27.7725C80.275 24.4927 81.2695 20.1456 84.1102 17.2913C90.9559 17.2598 97.801 17.1999 104.643 17.0917C97.8022 18.8965 93.9054 27.1369 94.0849 31.8875C94.1034 32.3676 94.8363 32.5504 95.3054 32.2583C101.932 28.1265 104.67 23.1365 106.884 17.0549C110.753 16.9887 114.622 16.912 118.489 16.8143C118.884 16.8049 118.884 16.3752 118.489 16.3657Z" fill="#8E9892" fill-opacity="0.7"/>
<path d="M136.122 17.0759C136.164 17.0759 136.208 17.077 136.249 17.078C136.219 17.1179 136.2 17.161 136.199 17.2072C136.173 17.1631 136.147 17.119 136.122 17.0759ZM140.1 25.1997C138.488 22.6774 137.734 19.9512 136.307 17.3963C136.331 17.4121 136.349 17.4289 136.381 17.4404C142.198 19.7222 145.722 25.8322 146.376 30.7014C143.879 29.1403 141.504 27.3985 140.1 25.1997ZM161.53 21.0953C161.132 20.0258 160.755 18.7536 159.891 17.7819C163.277 20.133 165.827 22.9222 167.19 26.2503C167.849 27.8629 168.439 29.5091 168.649 31.191C168.899 33.229 166.029 29.7633 165.527 28.9659C163.938 26.4457 162.528 23.771 161.53 21.0953ZM151.487 15.6283C153.914 12.7183 157.632 10.6571 161.484 8.74827C163.999 7.50233 166.758 6.34465 169.659 5.66075C171.412 5.24683 175.186 4.01138 173.095 6.30051C168.136 11.7286 159.859 14.375 151.487 15.6283ZM141.915 10.3283C138.127 12.3107 134.594 14.2846 130.366 15.6776C133.336 13.4767 135.3 10.5794 138.411 8.45622C142.645 5.56828 147.478 3.40732 152.932 1.99329C153.066 1.95862 150.3 5.17539 150.487 5.01991C149.655 5.70486 148.813 6.38037 147.862 6.98023C145.961 8.181 143.955 9.26094 141.915 10.3283ZM184.099 17.2871C184.129 17.286 184.161 17.286 184.191 17.286C187.209 19.3713 190.577 21.421 192.701 24.0788C193.974 25.6714 195.144 27.4773 195.153 29.3714C195.158 31.1626 194.742 31.5114 193.095 30.0459C188.785 26.2167 186.871 21.7035 184.099 17.2871ZM205.887 17.4226C211.414 19.0299 215.859 22.4778 216.632 26.9279C212.973 25.9488 211.379 23.3792 209.56 20.9787C208.669 19.8 207.509 18.2935 205.887 17.4226ZM225.437 16.7072C225.521 16.4781 225.356 16.1924 224.935 16.1882C223.785 16.1798 222.636 16.1703 221.486 16.1609C227.614 15.0526 233.437 14.8908 239.539 16.4603C235.35 18.4658 230.283 17.2503 225.437 16.7072ZM212.352 11.6478C209.039 13.2866 205.168 13.8959 201.663 15.1167C206.885 10.9092 212.812 5.7763 220.845 5.70591C218.062 7.71139 215.587 10.0489 212.352 11.6478ZM177.924 15.499C182.797 9.2809 190.603 5.54414 200.21 4.14482C196.265 10.2831 186.53 13.9274 177.924 15.499ZM123.511 16.8143C127.379 16.912 131.247 16.9887 135.116 17.0549C137.33 23.1365 140.067 28.1265 146.696 32.2583C147.164 32.5504 147.897 32.3676 147.915 31.8875C148.096 27.1369 144.198 18.8965 137.357 17.0917C144.201 17.1999 151.045 17.2598 157.89 17.2913C160.732 20.1456 161.724 24.4927 163.563 27.7725C164.536 29.5028 166.451 33.0095 169.499 33.2626C169.853 33.291 170.099 33.0305 170.121 32.8046C170.639 27.4857 167.055 20.5332 160.88 17.3102C168.234 17.3343 175.59 17.3207 182.945 17.2892C182.946 17.2955 182.945 17.3007 182.946 17.306C184.612 20.6246 186.172 23.8477 188.606 26.9174C190.262 29.0027 192.158 31.586 195.36 32.5451C195.705 32.6491 196.164 32.4348 196.238 32.1795C198.038 25.9131 192.06 20.8589 185.671 17.2808C191.547 17.2513 197.424 17.2114 203.299 17.1663C203.329 17.2198 203.379 17.2713 203.467 17.3123C205.227 18.1601 206.603 18.8681 207.736 20.2286C208.69 21.3768 209.481 22.5944 210.438 23.7405C212.059 25.6809 214.004 27.2147 217.089 27.8061C217.395 27.865 217.742 27.6948 217.726 27.451C217.452 22.9043 213.439 18.6874 207.699 17.1305C211.319 17.1011 214.941 17.0738 218.56 17.0433C218.561 17.1452 218.644 17.2471 218.8 17.2881C222.721 18.3113 228.098 18.4721 232.236 18.5425C235.679 18.6023 239.055 18.408 241.763 16.7061C242.133 16.4729 242.063 15.9182 241.599 15.769C234.228 13.3938 225.507 13.3328 218.325 16.1346C212.905 16.0895 207.486 16.0453 202.066 16.0044C206.307 15.103 210.492 13.9043 214.038 11.9661C217.337 10.1634 219.964 7.7093 222.899 5.61242C223.334 5.30042 222.984 4.81505 222.433 4.78669C212.765 4.27718 206.094 10.5804 200.486 15.5642C200.231 15.6671 199.972 15.7617 199.721 15.8741C199.656 15.9056 199.614 15.9434 199.583 15.9844C193.362 15.9382 187.139 15.9056 180.916 15.8825C189.505 14.3025 198.568 9.53304 201.718 3.69624C201.892 3.37477 201.398 3.14155 201.027 3.18987C191.739 4.37593 179.415 8.51925 176.71 15.8667C170.178 15.852 163.646 15.8594 157.114 15.8919C160.376 15.1513 163.593 13.7541 165.886 12.5901C169.776 10.6151 174.269 8.00555 175.401 4.44947C175.494 4.15847 175.161 3.95046 174.783 3.99668C168.671 4.75832 163.252 6.73019 158.286 9.41327C155.119 11.1246 151.425 13.1143 150.065 15.935C143.963 15.9865 137.859 16.0769 131.759 16.1945C136.465 15.0641 140.807 12.0029 144.563 9.93959C148.848 7.58533 152.525 5.08819 154.579 1.39449C154.726 1.12975 154.289 0.832456 153.94 0.924901C148.869 2.26014 143.869 3.95255 139.736 6.54109C135.387 9.26409 132.475 12.7571 128.751 15.8972C128.608 16.018 128.6 16.1514 128.668 16.2586C126.949 16.2954 125.23 16.3216 123.511 16.3657C123.115 16.3752 123.115 16.8049 123.511 16.8143Z" fill="#8E9892" fill-opacity="0.7"/>
</g>
<defs>
<clipPath id="clip0_1_2">
<rect width="242" height="34" fill="white"/>
</clipPath>
</defs>
</svg>
