<svg width="228" height="34" viewBox="0 0 228 34" fill="none" xmlns="http://www.w3.org/2000/svg">
<path d="M99.6809 17.2072C99.6789 17.161 99.6615 17.1179 99.632 17.078C99.6725 17.077 99.7126 17.0759 99.7521 17.0759C99.7284 17.119 99.7052 17.1631 99.6809 17.2072ZM90.0926 30.7014C90.7073 25.8322 94.0287 19.7222 99.5092 17.4404C99.5388 17.4289 99.5571 17.4121 99.5792 17.3963C98.2325 19.9512 97.524 22.6774 96.005 25.1997C94.6819 27.3985 92.4449 29.1403 90.0926 30.7014ZM72.0498 28.9659C71.5759 29.7633 68.8717 33.229 69.1098 31.191C69.3052 29.5091 69.8603 27.8629 70.4823 26.2503C71.7665 22.9222 74.1694 20.133 77.3591 17.7819C76.5448 18.7536 76.1903 20.0258 75.8137 21.0953C74.8731 23.771 73.5468 26.4457 72.0498 28.9659ZM64.9192 6.30051C62.9481 4.01138 66.5041 5.24684 68.1559 5.66075C70.8895 6.34465 73.4899 7.50233 75.8596 8.74827C79.4872 10.6571 82.9914 12.7183 85.2762 15.6283C77.3897 14.375 69.5917 11.7287 64.9192 6.30051ZM88.692 6.98023C87.7972 6.38037 87.0034 5.70486 86.2186 5.01991C86.395 5.17539 83.7894 1.95863 83.9157 1.99329C89.0539 3.40732 93.6073 5.56828 97.5957 8.45622C100.528 10.5794 102.378 13.4768 105.176 15.6776C101.193 14.2846 97.8643 12.3107 94.2953 10.3283C92.3743 9.26094 90.4824 8.181 88.692 6.98023ZM46.0769 30.0459C44.5236 31.5114 44.1318 31.1626 44.138 29.3714C44.1449 27.4773 45.2495 25.6714 46.4467 24.0788C48.4476 21.421 51.6207 19.3713 54.4648 17.286C54.4933 17.286 54.5228 17.286 54.5518 17.2871C51.9414 21.7035 50.1369 26.2167 46.0769 30.0459ZM30.5625 20.9787C28.8501 23.3792 27.3495 25.9488 23.9 26.9279C24.6284 22.4778 28.8168 19.0299 34.0235 17.4226C32.4976 18.2935 31.402 19.8 30.5625 20.9787ZM2.31936 16.4603C8.06838 14.8908 13.5542 15.0526 19.3271 16.1609C18.2435 16.1703 17.1617 16.1798 16.0793 16.1882C15.6801 16.1924 15.5252 16.4782 15.6058 16.7072C11.0397 17.2503 6.2645 18.4658 2.31936 16.4603ZM19.9312 5.70591C27.4996 5.7763 33.0844 10.9092 38.0033 15.1167C34.7019 13.8959 31.0549 13.2866 27.9336 11.6478C24.8844 10.0489 22.5537 7.71139 19.9312 5.70591ZM39.3718 4.14482C48.424 5.54414 55.779 9.2809 60.3699 15.499C52.2617 13.9274 43.0883 10.2831 39.3718 4.14482ZM111.634 16.3657C110.015 16.3216 108.395 16.2954 106.775 16.2586C106.84 16.1514 106.832 16.018 106.697 15.8972C103.188 12.7571 100.445 9.26409 96.3485 6.54109C92.4554 3.95256 87.7429 2.26014 82.966 0.924904C82.6369 0.832458 82.226 1.12976 82.3646 1.39449C84.2981 5.08819 87.7635 7.58533 91.8007 9.9396C95.3387 12.0029 99.4292 15.0641 103.863 16.1945C98.1161 16.0769 92.3658 15.9865 86.6152 15.935C85.3348 13.1143 81.8547 11.1246 78.8703 9.41327C74.1909 6.7302 69.0866 4.75833 63.3285 3.99668C62.9719 3.95046 62.6596 4.15847 62.7459 4.44947C63.813 8.00555 68.0463 10.6151 71.7102 12.5901C73.8702 13.7541 76.9026 15.1513 79.9743 15.8919C73.8212 15.8594 67.6671 15.852 61.5124 15.8667C58.9642 8.51926 47.352 4.37593 38.6034 3.18987C38.2525 3.14155 37.788 3.37478 37.9522 3.69624C40.9198 9.53304 49.4589 14.3025 57.5498 15.8825C51.687 15.9056 45.8246 15.9382 39.9623 15.9844C39.9333 15.9434 39.8938 15.9056 39.8332 15.8741C39.5978 15.7617 39.3517 15.6671 39.1116 15.5642C33.828 10.5804 27.5444 4.27718 18.4353 4.78669C17.9169 4.81506 17.5852 5.30042 17.996 5.61243C20.7612 7.70931 23.2364 10.1634 26.3435 11.9661C29.6839 13.9043 33.6274 15.103 37.6247 16.0044C32.5171 16.0453 27.4117 16.0895 22.3061 16.1346C15.5404 13.3328 7.32151 13.3938 0.377841 15.769C-0.0582844 15.9182 -0.126231 16.4729 0.222977 16.7061C2.77552 18.408 5.95423 18.6023 9.19928 18.5425C13.0975 18.4721 18.1636 18.3113 21.8584 17.2881C22.006 17.2472 22.0839 17.1452 22.085 17.0433C25.4955 17.0738 28.9064 17.1011 32.3174 17.1305C26.9075 18.6874 23.1278 22.9043 22.8703 27.451C22.856 27.6948 23.1815 27.865 23.4702 27.8061C26.3756 27.2147 28.2086 25.6809 29.7377 23.7405C30.6393 22.5944 31.3831 21.3768 32.2832 20.2286C33.3493 18.8681 34.6461 18.1601 36.3042 17.3123C36.3863 17.2713 36.4333 17.2198 36.4622 17.1663C41.998 17.2114 47.5333 17.2513 53.0711 17.2808C47.0508 20.8589 41.4186 25.9131 43.1151 32.1795C43.1836 32.4348 43.6171 32.6491 43.9421 32.5451C46.9591 31.586 48.7452 29.0027 50.3038 26.9174C52.5982 23.8477 54.0688 20.6246 55.6369 17.306C55.6394 17.3007 55.6374 17.2955 55.6394 17.2892C62.569 17.3207 69.4995 17.3343 76.4274 17.3102C70.6093 20.5332 67.2325 27.4857 67.7202 32.8046C67.7413 33.0305 67.9731 33.291 68.3071 33.2626C71.1782 33.0095 72.9837 29.5028 73.8981 27.7725C75.631 24.4927 76.568 20.1456 79.2443 17.2913C85.694 17.2598 92.1431 17.1999 98.5896 17.0917C92.1442 18.8965 88.4729 27.1369 88.642 31.8875C88.6594 32.3676 89.3499 32.5504 89.7919 32.2583C96.0355 28.1265 98.6149 23.1365 100.701 17.0549C104.346 16.9887 107.991 16.912 111.634 16.8143C112.006 16.8049 112.006 16.3752 111.634 16.3657Z" fill="#8E9892" fill-opacity="0.7"/>
<path d="M128.247 17.0759C128.287 17.0759 128.328 17.077 128.367 17.078C128.339 17.1179 128.321 17.161 128.32 17.2072C128.295 17.1631 128.271 17.119 128.247 17.0759ZM131.995 25.1997C130.476 22.6774 129.766 19.9512 128.421 17.3963C128.444 17.4121 128.461 17.4289 128.491 17.4404C133.972 19.7222 137.292 25.8322 137.908 30.7014C135.555 29.1403 133.318 27.3985 131.995 25.1997ZM152.185 21.0953C151.81 20.0258 151.455 18.7536 150.641 17.7819C153.831 20.133 156.234 22.9222 157.518 26.2503C158.139 27.8629 158.695 29.5091 158.892 31.191C159.128 33.229 156.424 29.7633 155.951 28.9659C154.454 26.4457 153.126 23.771 152.185 21.0953ZM142.723 15.6283C145.01 12.7183 148.513 10.6571 152.142 8.74827C154.511 7.50233 157.111 6.34465 159.844 5.66075C161.496 5.24683 165.051 4.01138 163.081 6.30051C158.409 11.7286 150.611 14.375 142.723 15.6283ZM133.705 10.3283C130.136 12.3107 126.808 14.2846 122.824 15.6776C125.622 13.4767 127.473 10.5794 130.404 8.45622C134.393 5.56828 138.946 3.40732 144.085 1.99329C144.211 1.95862 141.605 5.17539 141.781 5.01991C140.997 5.70486 140.204 6.38037 139.308 6.98023C137.517 8.181 135.627 9.26094 133.705 10.3283ZM173.449 17.2871C173.477 17.286 173.507 17.286 173.535 17.286C176.379 19.3713 179.552 21.421 181.553 24.0788C182.752 25.6714 183.855 27.4773 183.863 29.3714C183.868 31.1626 183.476 31.5114 181.924 30.0459C177.864 26.2167 176.06 21.7035 173.449 17.2871ZM193.976 17.4226C199.183 19.0299 203.371 22.4778 204.1 26.9279C200.652 25.9488 199.15 23.3792 197.437 20.9787C196.597 19.8 195.504 18.2935 193.976 17.4226ZM212.395 16.7072C212.474 16.4781 212.319 16.1924 211.922 16.1882C210.839 16.1798 209.756 16.1703 208.673 16.1609C214.446 15.0526 219.932 14.8908 225.681 16.4603C221.735 18.4658 216.961 17.2503 212.395 16.7072ZM200.067 11.6478C196.946 13.2866 193.299 13.8959 189.997 15.1167C194.916 10.9092 200.501 5.7763 208.069 5.70591C205.447 7.71139 203.115 10.0489 200.067 11.6478ZM167.631 15.499C172.222 9.2809 179.576 5.54414 188.628 4.14482C184.911 10.2831 175.739 13.9274 167.631 15.499ZM116.366 16.8143C120.01 16.912 123.654 16.9887 127.299 17.0549C129.385 23.1365 131.964 28.1265 138.209 32.2583C138.65 32.5504 139.341 32.3676 139.358 31.8875C139.528 27.1369 135.856 18.8965 129.411 17.0917C135.859 17.1999 142.307 17.2598 148.756 17.2913C151.433 20.1456 152.368 24.4927 154.101 27.7725C155.017 29.5028 156.822 33.0095 159.693 33.2626C160.027 33.291 160.259 33.0305 160.279 32.8046C160.767 27.4857 157.391 20.5332 151.573 17.3102C158.501 17.3343 165.432 17.3207 172.361 17.2892C172.362 17.2955 172.361 17.3007 172.362 17.306C173.932 20.6246 175.402 23.8477 177.695 26.9174C179.255 29.0027 181.041 31.586 184.058 32.5451C184.383 32.6491 184.816 32.4348 184.885 32.1795C186.581 25.9131 180.949 20.8589 174.93 17.2808C180.466 17.2513 186.003 17.2114 191.538 17.1663C191.566 17.2198 191.613 17.2713 191.696 17.3123C193.354 18.1601 194.651 18.8681 195.718 20.2286C196.617 21.3768 197.362 22.5944 198.264 23.7405C199.791 25.6809 201.624 27.2147 204.53 27.8061C204.818 27.865 205.145 27.6948 205.13 27.451C204.872 22.9043 201.091 18.6874 195.683 17.1305C199.094 17.1011 202.506 17.0738 205.916 17.0433C205.917 17.1452 205.995 17.2471 206.142 17.2881C209.836 18.3113 214.902 18.4721 218.801 18.5425C222.045 18.6023 225.225 18.408 227.777 16.7061C228.125 16.4729 228.059 15.9182 227.622 15.769C220.678 13.3938 212.461 13.3328 205.695 16.1346C200.588 16.0895 195.483 16.0453 190.376 16.0044C194.372 15.103 198.315 13.9043 201.656 11.9661C204.764 10.1634 207.239 7.7093 210.004 5.61242C210.414 5.30042 210.084 4.81505 209.565 4.78669C200.456 4.27718 194.171 10.5804 188.888 15.5642C188.647 15.6671 188.403 15.7617 188.167 15.8741C188.106 15.9056 188.066 15.9434 188.037 15.9844C182.176 15.9382 176.313 15.9056 170.45 15.8825C178.542 14.3025 187.081 9.53304 190.048 3.69624C190.212 3.37477 189.747 3.14155 189.397 3.18987C180.647 4.37593 169.036 8.51925 166.487 15.8667C160.333 15.852 154.179 15.8594 148.025 15.8919C151.098 15.1513 154.129 13.7541 156.289 12.5901C159.954 10.6151 164.187 8.00555 165.254 4.44947C165.341 4.15847 165.028 3.95046 164.672 3.99668C158.913 4.75832 153.808 6.73019 149.129 9.41327C146.145 11.1246 142.665 13.1143 141.384 15.935C135.635 15.9865 129.884 16.0769 124.137 16.1945C128.57 15.0641 132.661 12.0029 136.2 9.93959C140.237 7.58533 143.701 5.08819 145.636 1.39449C145.775 1.12975 145.363 0.832455 145.034 0.9249C140.257 2.26014 135.546 3.95255 131.652 6.54109C127.555 9.26409 124.811 12.7571 121.303 15.8972C121.168 16.018 121.16 16.1514 121.224 16.2586C119.605 16.2954 117.985 16.3216 116.366 16.3657C115.993 16.3752 115.993 16.8049 116.366 16.8143Z" fill="#8E9892" fill-opacity="0.7"/>
</svg>
